<?xml version="1.0" encoding="UTF-8"?>
<svg width="18px" height="18px" viewBox="0 0 18 18" version="1.1" xmlns="http://www.w3.org/2000/svg" xmlns:xlink="http://www.w3.org/1999/xlink">
    <!-- Generator: Sketch 52.5 (67469) - http://www.bohemiancoding.com/sketch -->
    <title>编组</title>
    <desc>Created with Sketch.</desc>
    <defs>
        <polygon id="path-1" points="1.02272727e-05 -2.84217094e-14 17.9017159 -2.84217094e-14 17.9017159 17.9016852 1.02272727e-05 17.9016852"></polygon>
    </defs>
    <g id="页面-1" stroke="none" stroke-width="1" fill="none" fill-rule="evenodd">
        <g id="首页" transform="translate(-213.000000, -23.000000)">
            <g id="收益地址" transform="translate(200.000000, 10.000000)">
                <g id="编组" transform="translate(13.000000, 13.000000)">
                    <mask id="mask-2" fill="white">
                        <use xlink:href="#path-1"></use>
                    </mask>
                    <g id="Clip-2"></g>
                    <path d="M14.0664989,8.14987841 C14.0664989,8.14987841 14.0524875,8.45751477 13.9606466,8.77507159 C13.8547943,9.14857159 13.4212602,10.5528784 12.8000557,12.4544352 L11.879192,12.4544352 C11.6175784,11.6215261 10.838567,11.0182193 9.91770341,11.0182193 C9.00676023,11.0182193 8.22774886,11.6175375 7.96010114,12.446458 L6.65776023,12.4424693 L5.09769205,6.17233295 L4.05297614,6.17233295 C3.7992375,5.97852614 3.79524886,5.67886705 3.79524886,5.64695795 C3.79524886,5.32940114 4.0309875,5.14561705 4.05297614,5.12761705 L5.61897614,5.12761705 L6.40207841,7.73444659 L14.104442,7.7104125 C14.098408,7.85420795 14.0844989,8.00199205 14.0664989,8.14987841 Z M9.91770341,14.511958 C9.12662386,14.511958 8.48547614,13.8667193 8.48547614,13.075742 C8.48547614,12.2846625 9.12468068,11.6435148 9.91770341,11.6435148 C10.7086807,11.6435148 11.3539193,12.2827193 11.3539193,13.075742 C11.3539193,13.8686625 10.7086807,14.511958 9.91770341,14.511958 Z M7.09119205,6.24821932 C7.60255568,5.52913977 8.55133977,4.54435568 8.74913523,4.34257159 C8.82297614,4.24663977 8.94283977,4.1947875 9.05677159,4.21268523 C9.18062386,4.23068523 9.25446477,4.32262841 9.26847614,4.34257159 L10.570817,5.90857159 C10.5748057,5.91859432 10.6527375,6.05645795 10.8185216,6.06443523 C10.9283625,6.06842386 11.034317,6.00849205 11.090158,5.90857159 L11.615533,5.12557159 C11.6195216,5.11565114 11.7074761,4.98371932 11.8732602,4.98371932 C12.0390443,4.98371932 12.1308852,5.11759432 12.1348739,5.12557159 L13.9586011,7.21101477 L7.20502159,7.21101477 C7.10315795,7.16110568 6.94340795,7.05515114 6.89145341,6.87545795 C6.82354432,6.63573068 6.97930568,6.39600341 7.09119205,6.24821932 Z M8.95081705,-3.06818182e-05 C4.00501023,-3.06818182e-05 1.02272727e-05,4.00496932 1.02272727e-05,8.95087841 C1.02272727e-05,13.8966852 4.00501023,17.9016852 8.95081705,17.9016852 C13.8967261,17.9016852 17.9017261,13.8966852 17.9017261,8.95087841 C17.9017261,4.00496932 13.8967261,-3.06818182e-05 8.95081705,-3.06818182e-05 Z" id="Fill-1" fill="#5E6C84" mask="url(#mask-2)"></path>
                </g>
            </g>
        </g>
    </g>
</svg>