<?xml version="1.0" encoding="UTF-8"?>
<svg width="32px" height="32px" viewBox="0 0 32 32" version="1.1" xmlns="http://www.w3.org/2000/svg" xmlns:xlink="http://www.w3.org/1999/xlink">
    <!-- Generator: Sketch 52.5 (67469) - http://www.bohemiancoding.com/sketch -->
    <title>挖矿总收益icon</title>
    <desc>Created with Sketch.</desc>
    <g id="页面-1" stroke="none" stroke-width="1" fill="none" fill-rule="evenodd">
        <g id="资金管理" transform="translate(-496.000000, -134.000000)">
            <g id="24小时挖矿收益" transform="translate(475.000000, 120.000000)">
                <g id="挖矿总收益icon" transform="translate(21.000000, 14.000000)">
                    <g transform="translate(-0.000000, -0.000000)" id="路径">
                        <path d="M16,-1.42108547e-14 C7.16256,-1.42108547e-14 -1.42108547e-14,7.16256 -1.42108547e-14,16 C-1.42108547e-14,24.8376 7.16256,32 16,32 C24.8376,32 32,24.8376 32,16 C32,7.16272 24.8376,-1.42108547e-14 16,-1.42108547e-14" fill="#FFDBDB"></path>
                        <path d="M19.1688,16.60944 L21.81568,19.25632 C21.972,19.41264 21.972,19.6688 21.81568,19.82816 L20.29696,21.34384 L26.13136,21.34384 L26.13136,22.67824 L5.57824,22.67824 L5.57824,21.34384 L9.81872,21.34384 L9.28752,17.45008 C9.2688,17.32512 9.31248,17.2 9.4032,17.10944 L14.25008,12.26256 C14.40624,12.10624 14.66256,12.10624 14.82192,12.26256 L17.42192,14.86576 C17.52512,14.9688 17.69376,14.9688 17.79696,14.86576 L20.64688,12.01568 C20.75008,11.91264 20.75008,11.74384 20.64688,11.64064 L18.5344,9.52816 C18.10624,9.1 18.10624,8.40624 18.5344,7.97824 C18.96256,7.55008 19.65632,7.55008 20.08448,7.97824 L26.1,13.99376 C26.52816,14.42192 26.52816,15.11568 26.1,15.54384 C25.672,15.972 24.97824,15.972 24.55008,15.54384 L22.39376,13.38752 C22.29072,13.28448 22.12192,13.28448 22.01872,13.38752 L19.1688,16.2376 C19.0656,16.3376 19.0656,16.50624 19.1688,16.60944" fill="#F56C6C"></path>
                    </g>
                </g>
            </g>
        </g>
    </g>
</svg>