<?xml version="1.0" encoding="UTF-8"?>
<svg width="32px" height="32px" viewBox="0 0 32 32" version="1.1" xmlns="http://www.w3.org/2000/svg" xmlns:xlink="http://www.w3.org/1999/xlink">
    <!-- Generator: Sketch 52.5 (67469) - http://www.bohemiancoding.com/sketch -->
    <title>24小时爆块Icon</title>
    <desc>Created with Sketch.</desc>
    <g id="页面-1" stroke="none" stroke-width="1" fill="none" fill-rule="evenodd">
        <g id="首页" transform="translate(-228.000000, -281.000000)">
            <g id="24小时爆块" transform="translate(207.000000, 268.000000)">
                <g id="24小时爆块Icon" transform="translate(21.000000, 13.000000)">
                    <circle id="Base" fill="#FFDAD3" cx="16" cy="16" r="16"></circle>
                    <path d="M15.0507812,11.6047734 L17.1775937,11.6047734 L17.1775937,8 L15.0507812,8 L15.0507812,11.6047734 Z M21.009625,13.4337264 L22.46875,14.9612161 L25,12.3861344 L23.5057188,10.876545 L21.009625,13.4337264 Z M7,12.4392669 L9.5486875,14.9964484 L11.0255313,13.5047592 L8.4765625,10.9475778 L7,12.4392669 Z M13.9960938,13.6647251 L12.4492188,18.175309 L19.7791562,18.175309 L18.2325625,13.6647251 L13.9960938,13.6647251 Z M18.3993437,19.4894161 L16.85275,24 L24.1826875,24 L22.6358125,19.4894161 L18.3993437,19.4894161 Z M9.53125,19.4894161 L7.984375,24 L15.3143125,24 L13.7674375,19.4894161 L9.53125,19.4894161 Z" id="Fill-1" fill="#FF4521"></path>
                </g>
            </g>
        </g>
    </g>
</svg>