<?xml version="1.0" encoding="UTF-8"?>
<svg width="32px" height="32px" viewBox="0 0 32 32" version="1.1" xmlns="http://www.w3.org/2000/svg" xmlns:xlink="http://www.w3.org/1999/xlink">
    <!-- Generator: Sketch 52.5 (67469) - http://www.bohemiancoding.com/sketch -->
    <title>当前难度icon</title>
    <desc>Created with Sketch.</desc>
    <defs>
        <polygon id="path-1" points="0 0 17.958663 0 17.958663 17.955495 0 17.955495"></polygon>
    </defs>
    <g id="页面-1" stroke="none" stroke-width="1" fill="none" fill-rule="evenodd">
        <g id="首页" transform="translate(-498.000000, -281.000000)">
            <g id="当前难度" transform="translate(477.000000, 268.000000)">
                <g id="当前难度icon" transform="translate(21.000000, 13.000000)">
                    <circle id="Base" fill-opacity="0.2" fill="#6554C0" cx="16" cy="16" r="16"></circle>
                    <g id="编组" transform="translate(7.000000, 7.000000)">
                        <mask id="mask-2" fill="white">
                            <use xlink:href="#path-1"></use>
                        </mask>
                        <g id="Clip-2"></g>
                        <path d="M0.996993,15.961545 L16.961733,15.961545 C17.514243,15.961545 17.958663,16.409295 17.958663,16.958565 C17.958663,17.511075 17.511003,17.955495 16.961733,17.955495 L0.996993,17.955495 C0.444483,17.955495 -2.7e-05,17.507835 -2.7e-05,16.958565 C-2.7e-05,16.409295 0.444483,15.961545 0.996993,15.961545 Z M10.157373,9.881055 C9.757233,10.258965 9.125433,10.243035 8.747613,9.843075 L7.287003,8.557065 L5.232663,10.690785 C4.832613,11.068605 4.200723,11.052765 3.822903,10.652715 C3.445083,10.252575 3.460923,9.620775 3.860973,9.242955 L6.632883,6.324885 C7.032933,5.947065 7.664823,5.962905 8.042733,6.363045 C7.709283,6.010605 9.468333,7.829955 9.468333,7.829955 L12.621303,4.327695 C13.021353,3.949875 13.653243,3.965805 14.031063,4.365855 C14.408883,4.765905 14.392953,5.397795 13.992903,5.775615 C13.992903,5.778765 9.176193,10.814625 10.157373,9.881055 Z M15.961563,2.991015 C15.961563,2.438505 15.513813,1.993995 14.964543,1.993995 L2.991033,1.993995 C2.438523,1.993995 1.994013,2.441655 1.994013,2.991015 L1.994013,11.970315 C1.994013,12.522825 2.441673,12.967335 2.991033,12.967335 L14.964543,12.967335 C15.516963,12.967335 15.961563,12.519675 15.961563,11.970315 L15.961563,2.991015 Z M15.961563,14.964525 L1.994013,14.964525 C0.892233,14.964525 -2.7e-05,14.072355 -2.7e-05,12.970575 L-2.7e-05,1.993995 C-2.7e-05,0.892215 0.892233,-4.5e-05 1.994013,-4.5e-05 L15.961563,-4.5e-05 C17.063343,-4.5e-05 17.955513,0.892215 17.955513,1.993995 L17.955513,12.967335 C17.958663,14.069205 17.063343,14.964525 15.961563,14.964525 Z" id="Fill-1" fill="#6554C0" mask="url(#mask-2)"></path>
                    </g>
                </g>
            </g>
        </g>
    </g>
</svg>