<?xml version="1.0" encoding="UTF-8"?>
<svg width="18px" height="18px" viewBox="0 0 18 18" version="1.1" xmlns="http://www.w3.org/2000/svg" xmlns:xlink="http://www.w3.org/1999/xlink">
    <!-- Generator: Sketch 52.5 (67469) - http://www.bohemiancoding.com/sketch -->
    <title>Element/Icon/Help</title>
    <desc>Created with Sketch.</desc>
    <g id="页面-1" stroke="none" stroke-width="1" fill="none" fill-rule="evenodd">
        <g id="资金管理" transform="translate(-691.000000, -279.000000)" fill="#E8EAED">
            <g id="质押加成" transform="translate(475.000000, 261.000000)">
                <g id="Element/Icon/Help" transform="translate(216.000000, 18.000000)">
                    <path d="M9,17.25 C4.44365081,17.25 0.75,13.5563492 0.75,9 C0.75,4.44365081 4.44365081,0.75 9,0.75 C13.5563492,0.75 17.25,4.44365081 17.25,9 C17.25,13.5563492 13.5563492,17.25 9,17.25 Z M8.42260742,12.4466146 L8.42260742,13.75 L9.66959635,13.75 L9.66959635,12.4466146 L8.42260742,12.4466146 Z M6.3108724,7.42732747 L7.42626953,7.42732747 C7.44715722,6.8842475 7.53279547,6.46858868 7.68318685,6.18033854 C7.9505493,5.6623238 8.43304773,5.40332031 9.13069661,5.40332031 C9.69466428,5.40332031 10.098835,5.55370943 10.343221,5.85449219 C10.587607,6.15527494 10.7097982,6.51036037 10.7097982,6.91975911 C10.7097982,7.21218679 10.6262487,7.49416639 10.4591471,7.76570638 C10.3672413,7.9202753 10.2460945,8.06857568 10.0957031,8.21061198 L9.59440104,8.70564779 C9.11398414,9.17770961 8.80276221,9.59650154 8.66072591,9.96203613 C8.51868961,10.3275707 8.44767253,10.8090248 8.44767253,11.4064128 L9.56306966,11.4064128 C9.56306966,10.8800429 9.62259869,10.4821384 9.74165853,10.2126872 C9.86071837,9.94323596 10.1207662,9.61425976 10.5218099,9.2257487 C11.0732449,8.6910238 11.4398184,8.28580867 11.6215413,8.01009115 C11.8032643,7.73437362 11.8941243,7.37511072 11.8941243,6.93229167 C11.8941243,6.20122247 11.6466089,5.60071036 11.1515706,5.1307373 C10.6565324,4.66076425 9.99753558,4.42578125 9.17456055,4.42578125 C8.2847449,4.42578125 7.58501774,4.70045027 7.07535807,5.24979655 C6.56569841,5.79914283 6.3108724,6.52497921 6.3108724,7.42732747 Z" id="Icon"></path>
                </g>
            </g>
        </g>
    </g>
</svg>