<?xml version="1.0" encoding="UTF-8"?>
<svg width="16px" height="16px" viewBox="0 0 16 16" version="1.1" xmlns="http://www.w3.org/2000/svg" xmlns:xlink="http://www.w3.org/1999/xlink">
    <!-- Generator: Sketch 52.5 (67469) - http://www.bohemiancoding.com/sketch -->
    <title>形状</title>
    <desc>Created with Sketch.</desc>
    <g id="页面-1" stroke="none" stroke-width="1" fill="none" fill-rule="evenodd">
        <g id="首页" transform="translate(-854.000000, -24.000000)" fill="#344563" fill-rule="nonzero">
            <g id="顶部NAV" transform="translate(180.000000, 0.000000)">
                <path d="M682,24 C677.581722,24 674,27.581722 674,32 C674,36.418278 677.581722,40 682,40 C686.418278,40 690,36.418278 690,32 C690,29.8782681 689.157145,27.8434368 687.656854,26.3431458 C686.156563,24.8428547 684.121732,24 682,24 Z M688.4,31.584 C687.664639,32.1059594 686.855809,32.5157667 686,32.8 C685.744313,32.7806608 685.493252,32.72127 685.256,32.624 L685.256,32 C685.304947,29.9554581 684.968415,27.919986 684.264,26 C686.621099,26.8856407 688.239848,29.0711082 688.4,31.584 Z M682,38.4 C681.592,38.4 680.4,36.24 680.4,32.112 L680.52,32.176 C680.952,32.4 681.368,32.608 681.704,32.744 C682.04,32.88 682.352,33.04 682.752,33.248 L683.552,33.64 C683.28,36.8 682.352,38.4 682,38.4 Z M683.48,31.824 C683.048,31.6 682.632,31.392 682.296,31.256 C681.96,31.12 681.648,30.96 681.248,30.752 L680.448,30.36 C680.72,27.2 681.648,25.6 682,25.6 C682.352,25.6 683.6,27.76 683.6,31.888 L683.48,31.824 Z M679.792,26 C679.320289,27.1960179 679.026497,28.4547394 678.92,29.736 C678.622355,29.6427341 678.311899,29.5968406 678,29.6 C677.229642,29.7365588 676.493262,30.021872 675.832,30.44 C676.342077,28.3991273 677.822517,26.7392398 679.792,26 Z M675.6,32.416 C676.335361,31.8940406 677.144191,31.4842333 678,31.2 C678.275058,31.2163187 678.545452,31.2785093 678.8,31.384 L678.8,32 C678.751053,34.0445419 679.087585,36.080014 679.792,38 C677.412951,37.1319804 675.769481,34.942778 675.6,32.416 Z M684.184,38.016 C684.654833,36.8197081 684.948594,35.5611174 685.056,34.28 C685.337078,34.3617407 685.627403,34.4074399 685.92,34.416 L686,34.416 C686.779731,34.2908333 687.527242,34.0135745 688.2,33.6 C687.671931,35.6328525 686.180039,37.2772224 684.208,38 L684.184,38.016 Z" id="形状"></path>
            </g>
        </g>
    </g>
</svg>