<?xml version="1.0" encoding="UTF-8"?>
<svg width="18px" height="18px" viewBox="0 0 18 18" version="1.1" xmlns="http://www.w3.org/2000/svg" xmlns:xlink="http://www.w3.org/1999/xlink">
    <!-- Generator: Sketch 52.5 (67469) - http://www.bohemiancoding.com/sketch -->
    <title>编组复制 2</title>
    <desc>Created with Sketch.</desc>
    <defs>
        <polygon id="path-1" points="0 0 18 0 18 18 0 18"></polygon>
    </defs>
    <g id="页面-1" stroke="none" stroke-width="1" fill="none" fill-rule="evenodd">
        <g id="首页" transform="translate(-25.000000, -217.000000)">
            <g id="NAV">
                <g id="编组复制-2" transform="translate(23.000000, 215.000000)">
                    <rect id="矩形" x="0" y="0" width="22" height="22"></rect>
                    <g id="编组" transform="translate(2.000000, 2.000000)">
                        <mask id="mask-2" fill="white">
                            <use xlink:href="#path-1"></use>
                        </mask>
                        <g id="Clip-2"></g>
                        <path d="M12.3835763,10.53603 C12.3835763,10.27917 12.4853163,10.07523 12.6359525,9.87003 C12.8148498,9.70389 13.0501796,9.61236 13.2938531,9.61443 C13.547575,9.61443 13.7485429,9.71757 13.9518434,9.87003 C14.1038253,10.02366 14.2054756,10.27917 14.2054756,10.53477 C14.2054756,10.79037 14.1038253,10.99557 13.9518434,11.1996 C13.7999512,11.40363 13.547575,11.4552 13.2938531,11.4552 C13.0415667,11.4552 12.8393427,11.35314 12.6359525,11.1996 C12.4632457,11.02293 12.3716439,10.78191 12.3835763,10.53477 L12.3835763,10.53603 Z M15.1157523,3.12003 L5.95861593,3.12003 C6.66675848,2.76237 7.37490103,2.35323 8.03289134,1.99557 L9.70164232,1.07397 C10.259059,0.7668 10.6634171,0.56277 11.0174435,0.35757 C11.4720436,0.10197 11.92781,1.19904087e-14 12.2819261,1.19904087e-14 C12.6359525,1.19904087e-14 12.9900686,0.10197 13.2437008,0.20403 C13.547575,0.35757 13.7999512,0.56277 14.0020854,0.81837 L15.114586,3.11877 L15.1157523,3.12003 Z M17.8480181,16.10757 C17.8480181,16.36317 17.7966098,16.61877 17.6961258,16.82397 C17.5943859,17.028 17.4927356,17.23194 17.3420097,17.43723 C17.1782747,17.60157 16.9903159,17.73963 16.784593,17.84646 C16.5823691,17.94834 16.329993,18 16.0763608,18 L1.8723238,18 C1.61869159,18 1.36631544,17.94834 1.16418125,17.84646 C0.910549042,17.7444 0.709581182,17.64243 0.556432907,17.43831 C0.381842079,17.26299 0.244214982,17.05401 0.152074807,16.82397 C0.0484507546,16.59969 -0.00349584838,16.3548 0.000182581191,16.10757 L0.000182581191,5.93154 C0.000182581191,5.42043 0.203572821,4.95963 0.556432907,4.60197 C0.900769802,4.24314 1.37573581,4.03992 1.8723238,4.0392 L16.1266027,4.0392 C16.6337774,4.0392 17.0883775,4.24323 17.4424936,4.60323 C17.7966098,4.9608 18,5.42043 18,5.93154 L18,8.69283 L13.2938531,8.69283 C12.7879344,8.69283 12.3333344,8.84637 11.9780519,9.20394 C11.6251918,9.56286 11.4218016,9.97191 11.4218016,10.5336 C11.4218016,10.89243 11.5234519,11.19834 11.6251918,11.45394 C11.7256758,11.7108 11.92781,11.91474 12.1814422,12.06837 C12.433908,12.2724 12.7879344,12.37437 13.2437008,12.37437 L17.8480181,12.37437 L17.8480181,16.10757 Z" id="Fill-1" fill="#5E6C84" mask="url(#mask-2)"></path>
                    </g>
                </g>
            </g>
        </g>
    </g>
</svg>