<?xml version="1.0" encoding="UTF-8"?>
<svg width="18px" height="18px" viewBox="0 0 18 18" version="1.1" xmlns="http://www.w3.org/2000/svg" xmlns:xlink="http://www.w3.org/1999/xlink">
    <!-- Generator: Sketch 52.5 (67469) - http://www.bohemiancoding.com/sketch -->
    <title>编组</title>
    <desc>Created with Sketch.</desc>
    <g id="页面-1" stroke="none" stroke-width="1" fill="none" fill-rule="evenodd">
        <g id="首页" transform="translate(-25.000000, -87.000000)">
            <g id="NAV">
                <g id="编组" transform="translate(23.000000, 85.000000)">
                    <rect id="矩形" x="0" y="0" width="22" height="22"></rect>
                    <path d="M13.3333333,2 L18.6666667,2 C19.4030463,2 20,2.59695367 20,3.33333333 L20,8.66666667 C20,9.40304633 19.4030463,10 18.6666667,10 L13.3333333,10 C12.5969537,10 12,9.40304633 12,8.66666667 L12,3.33333333 C12,2.59695367 12.5969537,2 13.3333333,2 Z M13.3333333,12 L18.6666667,12 C19.4030463,12 20,12.5969537 20,13.3333333 L20,18.6666667 C20,19.4030463 19.4030463,20 18.6666667,20 L13.3333333,20 C12.5969537,20 12,19.4030463 12,18.6666667 L12,13.3333333 C12,12.5969537 12.5969537,12 13.3333333,12 Z M3.33333333,2 L8.66666667,2 C9.40304633,2 10,2.59695367 10,3.33333333 L10,8.66666667 C10,9.40304633 9.40304633,10 8.66666667,10 L3.33333333,10 C2.59695367,10 2,9.40304633 2,8.66666667 L2,3.33333333 C2,2.59695367 2.59695367,2 3.33333333,2 Z M3.33333333,12 L8.66666667,12 C9.40304633,12 10,12.5969537 10,13.3333333 L10,18.6666667 C10,19.4030463 9.40304633,20 8.66666667,20 L3.33333333,20 C2.59695367,20 2,19.4030463 2,18.6666667 L2,13.3333333 C2,12.5969537 2.59695367,12 3.33333333,12 Z" id="形状结合" fill="#00B000"></path>
                </g>
            </g>
        </g>
    </g>
</svg>