<?xml version="1.0" encoding="UTF-8"?>
<svg width="32px" height="32px" viewBox="0 0 32 32" version="1.1" xmlns="http://www.w3.org/2000/svg" xmlns:xlink="http://www.w3.org/1999/xlink">
    <!-- Generator: Sketch 52.5 (67469) - http://www.bohemiancoding.com/sketch -->
    <title>矿机数量Icon</title>
    <desc>Created with Sketch.</desc>
    <g id="页面-1" stroke="none" stroke-width="1" fill="none" fill-rule="evenodd">
        <g id="矿机管理" transform="translate(-234.000000, -134.000000)">
            <g id="编组-3">
                <g id="矿机数量" transform="translate(213.000000, 120.000000)">
                    <g id="矿机数量Icon" transform="translate(21.000000, 14.000000)">
                        <circle id="Base" fill="#CCEFCC" cx="16" cy="16" r="16"></circle>
                        <path d="M8,7 L24,7 C24.5522847,7 25,7.44771525 25,8 L25,14 C25,14.5522847 24.5522847,15 24,15 L8,15 C7.44771525,15 7,14.5522847 7,14 L7,8 C7,7.44771525 7.44771525,7 8,7 Z M8,17 L24,17 C24.5522847,17 25,17.4477153 25,18 L25,24 C25,24.5522847 24.5522847,25 24,25 L8,25 C7.44771525,25 7,24.5522847 7,24 L7,18 C7,17.4477153 7.44771525,17 8,17 Z M20,10 L22,10 L22,12 L20,12 L20,10 Z M20,20 L22,20 L22,22 L20,22 L20,20 Z M17,10 L19,10 L19,12 L17,12 L17,10 Z M17,20 L19,20 L19,22 L17,22 L17,20 Z" id="形状结合" fill="#00B000"></path>
                    </g>
                </g>
            </g>
        </g>
    </g>
</svg>