<?xml version="1.0" encoding="UTF-8"?>
<svg width="32px" height="32px" viewBox="0 0 32 32" version="1.1" xmlns="http://www.w3.org/2000/svg" xmlns:xlink="http://www.w3.org/1999/xlink">
    <!-- Generator: Sketch 52.5 (67469) - http://www.bohemiancoding.com/sketch -->
    <title>在线矿机Icon</title>
    <desc>Created with Sketch.</desc>
    <g id="页面-1" stroke="none" stroke-width="1" fill="none" fill-rule="evenodd">
        <g id="矿机管理" transform="translate(-499.000000, -134.000000)">
            <g id="编组-3">
                <g id="在线矿机" transform="translate(478.000000, 120.000000)">
                    <g id="在线矿机Icon" transform="translate(21.000000, 14.000000)">
                        <path d="M0,16 C0,24.837368 7.16318874,32 16,32 C24.8369735,32 32,24.837368 32,16 C32,7.1642567 24.8369735,0 16,0 C7.16318874,0 0,7.1642567 0,16 Z" id="路径" fill="#FDEDD3"></path>
                        <path d="M24.7900608,13.7893784 L21.6699528,16.9400932 C19.6797533,18.0862739 18.9265785,16.6539754 18.9265785,16.6539754 L22.7457916,13.0444774 L22.6924527,11.3835644 L20.5401906,9.37747616 L19.3030198,9.31997286 L15.645577,13.2746461 C14.4617451,12.9308696 15.2682589,10.867278 15.2682589,10.867278 L18.4957753,7.54405323 C19.5178368,6.57053782 21.2932193,7.20043213 21.2932193,7.20043213 L24.6825061,10.8099301 C25.3275418,11.6121789 24.7900608,13.7893784 24.7900608,13.7893784 Z M17.815949,12.9054381 C18.2287976,12.4275222 18.9095953,12.4146447 19.3363877,12.8771076 C19.3376814,12.8783954 19.3388314,12.8796831 19.3401252,12.8809709 C19.7670612,13.3469751 19.7766925,14.112381 19.3611126,14.5906189 L14.8506838,19.7882965 C14.4365414,20.2657296 13.7550249,20.2769974 13.3285201,19.8132467 C13.3278013,19.8126028 13.3272263,19.811798 13.3266513,19.8111541 C12.8995715,19.3461157 12.890084,18.5816756 13.3052327,18.1035987 C13.3052327,18.1034377 13.3053764,18.1034377 13.3055202,18.1032767 L17.815949,12.9054381 Z M16.7313827,21.1312463 L13.5044585,24.4546664 C12.4822534,25.4295923 10.7068752,24.8000012 10.7068752,24.8000012 L7.31788877,21.1903044 C6.67227013,20.3878905 7.20989598,18.2108203 7.20989598,18.2108203 L10.3297041,15.0599121 C12.320045,13.9137176 13.0730719,15.3460334 13.0730719,15.3460334 L9.25401403,18.9555748 L9.3080835,20.6166632 L11.4600482,22.6226202 L12.697216,22.6787254 L16.35465,18.7254034 C17.5384791,19.0694949 16.7313827,21.1312463 16.7313827,21.1312463 Z" id="形状结合" fill="#F5A623"></path>
                    </g>
                </g>
            </g>
        </g>
    </g>
</svg>