<?xml version="1.0" encoding="UTF-8"?>
<svg width="32px" height="32px" viewBox="0 0 32 32" version="1.1" xmlns="http://www.w3.org/2000/svg" xmlns:xlink="http://www.w3.org/1999/xlink">
    <!-- Generator: Sketch 52.5 (67469) - http://www.bohemiancoding.com/sketch -->
    <title>设备icon</title>
    <desc>Created with Sketch.</desc>
    <g id="页面-1" stroke="none" stroke-width="1" fill="none" fill-rule="evenodd">
        <g id="矿机管理" transform="translate(-764.000000, -134.000000)">
            <g id="编组-3">
                <g id="矿机总容量" transform="translate(743.000000, 120.000000)">
                    <g id="设备icon" transform="translate(21.000000, 14.000000)">
                        <path d="M16,0 C7.16434286,0 0,7.16434286 0,16 C0,24.8356571 7.16434286,32 16,32 C24.83584,32 32,24.8356571 32,16 C32,7.16416 24.83584,0 16,0 Z" id="路径" fill="#FFDAD3"></path>
                        <path d="M25.4148605,21.4221613 C25.4148605,21.7935644 25.2910053,22.1649676 25.0434574,22.4126781 C24.7957469,22.660226 24.4846459,22.8476343 24.0529405,22.8476343 L8.12275132,22.8476343 C7.75134815,22.8476343 7.4402472,22.723779 7.19269926,22.4760686 C7.00529101,22.2888229 6.88159831,21.9174197 6.88159831,21.5460165 L6.88159831,17.333313 C6.88159831,17.2094578 6.88159831,17.0856025 6.94498878,16.9619098 C6.94498878,16.8380546 7.0085418,16.7745016 7.06884402,16.6508089 C7.13239704,16.5269537 7.13239704,16.4030984 7.25608974,16.2158527 C7.31964275,16.0919975 7.37994497,15.9047517 7.50380021,15.596739 C7.69104593,15.2253359 7.81490116,14.8539327 7.99905862,14.5428317 C8.18630434,14.1078756 8.43385228,13.6761702 8.61800974,13.241214 C8.86572021,12.8062578 9.05296593,12.3745524 9.23712339,11.9395962 C9.48467132,11.4443378 9.67207958,11.0729346 9.79577228,10.7618337 L10.1068732,10.0793295 C10.2942815,9.70792635 10.4782764,9.46021587 10.7895399,9.33652317 C11.1006408,9.21266794 11.408491,9.14911492 11.7798942,9.14911492 L20.5196529,9.14911492 C21.0149113,9.14911492 21.3260123,9.21266794 21.5735602,9.33652317 C21.8212707,9.46021587 22.0688186,9.70792635 22.1926739,10.0793295 C22.2560643,10.2031848 22.3799196,10.4507327 22.5037748,10.7618337 C22.6276301,11.0729346 22.8148758,11.4443378 22.9990332,11.815741 C23.1862789,12.1873067 23.3704364,12.6221003 23.6179843,13.1173587 C23.8053926,13.5523149 24.0529405,13.9840203 24.237098,14.4189765 L24.7323564,15.4728838 C24.8560491,15.7839848 24.9799043,16.0316952 25.0434574,16.1555505 L25.2307031,16.5269537 C25.2942561,16.5903441 25.2942561,16.7141994 25.3545583,16.7745016 C25.4181113,16.8380546 25.4181113,16.9619098 25.4181113,17.0856025 L25.4181113,21.4221613 L25.4148605,21.4221613 Z M21.35041,20.9643208 L21.9698639,20.9643208 L21.9698639,17.9971424 L21.35041,17.9971424 L21.35041,20.9643208 Z M19.4889585,20.9643208 L20.1084123,20.9643208 L20.1084123,17.9971424 L19.4889585,17.9971424 L19.4889585,20.9643208 Z M17.5673343,20.9643208 L18.1867881,20.9643208 L18.1867881,17.9971424 L17.5673343,17.9971424 L17.5673343,20.9643208 Z M15.5821221,20.9643208 L16.2015759,20.9643208 L16.2015759,17.9971424 L15.5821221,17.9971424 L15.5821221,20.9643208 Z M13.7208332,20.9643208 L14.3402871,20.9643208 L14.3402871,17.9971424 L13.7208332,17.9971424 L13.7208332,20.9643208 Z M11.7990463,20.9643208 L12.4185002,20.9643208 L12.4185002,17.9971424 L11.7990463,17.9971424 L11.7990463,20.9643208 Z M9.8774221,20.9643208 L10.496876,20.9643208 L10.496876,17.9971424 L9.8774221,17.9971424 L9.8774221,20.9643208 Z M23.4562929,17.2529564 L8.69592244,17.2529564 C8.44807584,17.2529564 8.26072724,17.31635 8.13680394,17.4397325 C8.01288065,17.5632771 7.94945534,17.7500532 7.94945534,17.9337488 L7.94945534,20.9009272 C7.94945534,21.0877033 8.01288065,21.2112479 8.07337863,21.3347925 C8.13680394,21.458175 8.3210626,21.5215686 8.5084112,21.5215686 L23.3292796,21.5215686 C23.5771262,21.5215686 23.7644748,21.458175 23.8883981,21.3347925 C23.9518234,21.2112479 24.0121588,21.0244718 24.0121588,20.8407762 L24.0121588,17.8735978 C24.0154114,17.4397325 23.8280628,17.2529564 23.4562929,17.2529564 Z M11.735621,11.5055378 C11.9229696,11.5055378 12.1072283,11.4421442 12.2311516,11.3185996 C12.3550749,11.1319856 12.4185002,11.008441 12.4185002,10.8247454 C12.4185002,10.6378072 12.3550749,10.4541116 12.2311516,10.3307291 C12.1072283,10.2071845 11.9198797,10.1437908 11.735621,10.1437908 C11.5482724,10.1437908 11.3640138,10.2071845 11.2400905,10.3307291 C11.1163298,10.4541116 11.0527419,10.6410498 11.0527419,10.8247454 C11.0527419,11.0115215 11.1163298,11.1952171 11.2400905,11.3185996 C11.3640138,11.4421442 11.5482724,11.5055378 11.735621,11.5055378 Z M21.9698639,15.2136596 C22.1572125,15.2136596 22.3414711,15.150266 22.4653944,15.0268835 C22.5891551,14.9033389 22.652743,14.7165628 22.652743,14.5328672 C22.652743,14.3460911 22.5891551,14.1622334 22.4653944,14.0388509 C22.3414711,13.9153063 22.1541225,13.8519127 21.9698639,13.8519127 C21.7823526,13.8519127 21.5982566,13.9153063 21.4743333,14.0388509 C21.35041,14.1622334 21.2869847,14.3491716 21.2869847,14.5328672 C21.2869847,14.7196433 21.35041,14.9033389 21.4743333,15.0268835 C21.595004,15.150266 21.7823526,15.2136596 21.9698639,15.2136596 Z M20.4165943,11.5055378 C20.6039429,11.5055378 20.7882016,11.4421442 20.9121249,11.3185996 C20.9757128,11.1319856 21.0360481,11.008441 21.0360481,10.8247454 C21.0360481,10.6378072 20.9724602,10.4541116 20.8485369,10.3307291 C20.7247762,10.2071845 20.537265,10.1437908 20.3530064,10.1437908 C20.1656578,10.1437908 20.0417345,10.2071845 19.9179738,10.3307291 C19.7940505,10.4541116 19.7304626,10.6410498 19.7304626,10.8247454 C19.7304626,11.0115215 19.7940505,11.1952171 19.9179738,11.3185996 C20.044987,11.4421442 20.2323356,11.5055378 20.4165943,11.5055378 Z M10.1220161,15.2136596 C10.3095274,15.2136596 10.4936234,15.150266 10.6175467,15.0268835 C10.74147,14.9033389 10.8048953,14.7165628 10.8048953,14.5328672 C10.8048953,14.3460911 10.74147,14.1622334 10.6175467,14.0388509 C10.4936234,13.9153063 10.3062748,13.8519127 10.1220161,13.8519127 C9.93466751,13.8519127 9.75040886,13.9153063 9.62648556,14.0388509 C9.50272489,14.1622334 9.43913696,14.3491716 9.43913696,14.5328672 C9.43913696,14.7196433 9.50272489,14.9033389 9.62648556,15.0268835 C9.75040886,15.150266 9.93775746,15.2136596 10.1220161,15.2136596 Z" id="Fill-1" fill="#FF4521"></path>
                    </g>
                </g>
            </g>
        </g>
    </g>
</svg>