<?xml version="1.0" encoding="UTF-8"?>
<svg width="48px" height="48px" viewBox="0 0 48 48" version="1.1" xmlns="http://www.w3.org/2000/svg" xmlns:xlink="http://www.w3.org/1999/xlink">
    <!-- Generator: Sketch 52.5 (67469) - http://www.bohemiancoding.com/sketch -->
    <title>设备icon</title>
    <desc>Created with Sketch.</desc>
    <g id="页面-1" stroke="none" stroke-width="1" fill="none" fill-rule="evenodd">
        <g id="添加矿机" transform="translate(-359.000000, -457.000000)" fill="#00B000">
            <g transform="translate(312.000000, 160.000000)" id="矿机信息">
                <g transform="translate(30.000000, 276.000000)">
                    <g id="设备icon" transform="translate(17.000000, 21.000000)">
                        <path d="M24,0 C10.7465143,0 0,10.7465143 0,24 C0,37.2534857 10.7465143,48 24,48 C37.25376,48 48,37.2534857 48,24 C48,10.74624 37.25376,0 24,0 Z" id="路径" fill-opacity="0.1"></path>
                        <path d="M38.1222908,32.1332419 C38.1222908,32.6903467 37.9365079,33.2474514 37.565186,33.6190171 C37.1936203,33.990339 36.7269689,34.2714514 36.0794108,34.2714514 L12.184127,34.2714514 C11.6270222,34.2714514 11.1603708,34.0856686 10.7890489,33.7141029 C10.5079365,33.4332343 10.3223975,32.8761295 10.3223975,32.3190248 L10.3223975,25.9999695 C10.3223975,25.8141867 10.3223975,25.6284038 10.4174832,25.4428648 C10.4174832,25.2570819 10.5128127,25.1617524 10.603266,24.9762133 C10.6985956,24.7904305 10.6985956,24.6046476 10.8841346,24.323779 C10.9794641,24.1379962 11.0699175,23.8571276 11.2557003,23.3951086 C11.5365689,22.8380038 11.7223517,22.280899 11.9985879,21.8142476 C12.2794565,21.1618133 12.6507784,20.5142552 12.9270146,19.861821 C13.2985803,19.2093867 13.5794489,18.5618286 13.8556851,17.9093943 C14.227007,17.1665067 14.5081194,16.6094019 14.6936584,16.1427505 L15.1603098,15.1189943 C15.4414222,14.5618895 15.7174146,14.1903238 16.1843098,14.0047848 C16.6509613,13.8190019 17.1127365,13.7236724 17.6698413,13.7236724 L30.7794794,13.7236724 C31.522367,13.7236724 31.9890184,13.8190019 32.3603403,14.0047848 C32.731906,14.1903238 33.1032279,14.5618895 33.2890108,15.1189943 C33.3840965,15.3047771 33.5698794,15.676099 33.7556622,16.1427505 C33.9414451,16.6094019 34.2223137,17.1665067 34.4985498,17.7236114 C34.7794184,18.28096 35.0556546,18.9331505 35.4269765,19.6760381 C35.7080889,20.3284724 36.0794108,20.9760305 36.355647,21.6284648 L37.0985346,23.2093257 C37.2840737,23.6759771 37.4698565,24.0475429 37.565186,24.2333257 L37.8460546,24.7904305 C37.9413841,24.8855162 37.9413841,25.071299 38.0318375,25.1617524 C38.127167,25.2570819 38.127167,25.4428648 38.127167,25.6284038 L38.127167,32.1332419 L38.1222908,32.1332419 Z M32.025615,31.4464812 L32.9547958,31.4464812 L32.9547958,26.9957136 L32.025615,26.9957136 L32.025615,31.4464812 Z M29.2334377,31.4464812 L30.1626185,31.4464812 L30.1626185,26.9957136 L29.2334377,26.9957136 L29.2334377,31.4464812 Z M26.3510014,31.4464812 L27.2801822,31.4464812 L27.2801822,26.9957136 L26.3510014,26.9957136 L26.3510014,31.4464812 Z M23.3731831,31.4464812 L24.3023639,31.4464812 L24.3023639,26.9957136 L23.3731831,26.9957136 L23.3731831,31.4464812 Z M20.5812498,31.4464812 L21.5104306,31.4464812 L21.5104306,26.9957136 L20.5812498,26.9957136 L20.5812498,31.4464812 Z M17.6985695,31.4464812 L18.6277503,31.4464812 L18.6277503,26.9957136 L17.6985695,26.9957136 L17.6985695,31.4464812 Z M14.8161332,31.4464812 L15.7453139,31.4464812 L15.7453139,26.9957136 L14.8161332,26.9957136 L14.8161332,31.4464812 Z M35.1844393,25.8794346 L13.0438837,25.8794346 C12.6721138,25.8794346 12.3910909,25.974525 12.2052059,26.1595987 C12.019321,26.3449156 11.924183,26.6250798 11.924183,26.9006232 L11.924183,31.3513908 C11.924183,31.6315549 12.019321,31.8168719 12.110068,32.0021888 C12.2052059,32.1872625 12.4815939,32.2823529 12.7626168,32.2823529 L34.9939195,32.2823529 C35.3656894,32.2823529 35.6467123,32.1872625 35.8325972,32.0021888 C35.9277352,31.8168719 36.0182382,31.5367077 36.0182382,31.2611643 L36.0182382,26.8103967 C36.0231171,26.1595987 35.7420942,25.8794346 35.1844393,25.8794346 Z M17.6034315,17.2583067 C17.8844545,17.2583067 18.1608424,17.1632163 18.3467274,16.9778994 C18.5326123,16.6979784 18.6277503,16.5126615 18.6277503,16.2371181 C18.6277503,15.9567107 18.5326123,15.6811674 18.3467274,15.4960936 C18.1608424,15.3107767 17.8798195,15.2156863 17.6034315,15.2156863 C17.3224086,15.2156863 17.0460207,15.3107767 16.8601357,15.4960936 C16.6744947,15.6811674 16.5791128,15.9615747 16.5791128,16.2371181 C16.5791128,16.5172823 16.6744947,16.7928257 16.8601357,16.9778994 C17.0460207,17.1632163 17.3224086,17.2583067 17.6034315,17.2583067 Z M32.9547958,22.8204894 C33.2358187,22.8204894 33.5122067,22.725399 33.6980916,22.5403253 C33.8837326,22.3550084 33.9791145,22.0748442 33.9791145,21.7993008 C33.9791145,21.5191366 33.8837326,21.2433501 33.6980916,21.0582763 C33.5122067,20.8729594 33.2311838,20.777869 32.9547958,20.777869 C32.6735289,20.777869 32.3973849,20.8729594 32.2114999,21.0582763 C32.025615,21.2433501 31.930477,21.5237574 31.930477,21.7993008 C31.930477,22.079465 32.025615,22.3550084 32.2114999,22.5403253 C32.392506,22.725399 32.6735289,22.8204894 32.9547958,22.8204894 Z M30.6248914,17.2583067 C30.9059144,17.2583067 31.1823023,17.1632163 31.3681873,16.9778994 C31.4635692,16.6979784 31.5540722,16.5126615 31.5540722,16.2371181 C31.5540722,15.9567107 31.4586903,15.6811674 31.2728054,15.4960936 C31.0871644,15.3107767 30.8058975,15.2156863 30.5295095,15.2156863 C30.2484866,15.2156863 30.0626017,15.3107767 29.8769607,15.4960936 C29.6910757,15.6811674 29.5956938,15.9615747 29.5956938,16.2371181 C29.5956938,16.5172823 29.6910757,16.7928257 29.8769607,16.9778994 C30.0674806,17.1632163 30.3485035,17.2583067 30.6248914,17.2583067 Z M15.1830242,22.8204894 C15.464291,22.8204894 15.7404351,22.725399 15.92632,22.5403253 C16.112205,22.3550084 16.2073429,22.0748442 16.2073429,21.7993008 C16.2073429,21.5191366 16.112205,21.2433501 15.92632,21.0582763 C15.7404351,20.8729594 15.4594122,20.777869 15.1830242,20.777869 C14.9020013,20.777869 14.6256133,20.8729594 14.4397283,21.0582763 C14.2540873,21.2433501 14.1587054,21.5237574 14.1587054,21.7993008 C14.1587054,22.079465 14.2540873,22.3550084 14.4397283,22.5403253 C14.6256133,22.725399 14.9066362,22.8204894 15.1830242,22.8204894 Z" id="Fill-1"></path>
                    </g>
                </g>
            </g>
        </g>
    </g>
</svg>