<?xml version="1.0" encoding="UTF-8"?>
<svg width="32px" height="32px" viewBox="0 0 32 32" version="1.1" xmlns="http://www.w3.org/2000/svg" xmlns:xlink="http://www.w3.org/1999/xlink">
    <!-- Generator: Sketch 52.5 (67469) - http://www.bohemiancoding.com/sketch -->
    <title>分组</title>
    <desc>Created with Sketch.</desc>
    <defs>
        <polygon id="path-1" points="0 0 17.958663 0 17.958663 17.955495 0 17.955495"></polygon>
    </defs>
    <g id="页面-1" stroke="none" stroke-width="1" fill="none" fill-rule="evenodd">
        <g id="资金管理" transform="translate(-496.000000, -275.000000)">
            <g id="质押加成" transform="translate(475.000000, 261.000000)">
                <g id="分组" transform="translate(21.000000, 14.000000)">
                    <g id="Icon" fill="#CCE4FF">
                        <circle id="Base" cx="16" cy="16" r="16"></circle>
                    </g>
                    <g id="编组" transform="translate(7.000000, 7.000000)">
                        <mask id="mask-2" fill="white">
                            <use xlink:href="#path-1"></use>
                        </mask>
                        <g id="Clip-2"></g>
                        <path d="M10.157373,10.881055 C9.757233,11.258965 9.125433,11.243035 8.747613,10.843075 L7.287003,9.557065 L5.232663,11.690785 C4.832613,12.068605 4.200723,12.052765 3.822903,11.652715 C3.445083,11.252575 3.460923,10.620775 3.860973,10.242955 L6.632883,7.324885 C7.032933,6.947065 7.664823,6.962905 8.042733,7.363045 C7.709283,7.010605 9.468333,8.829955 9.468333,8.829955 L12.621303,5.327695 C13.021353,4.949875 13.653243,4.965805 14.031063,5.365855 C14.408883,5.765905 14.392953,6.397795 13.992903,6.775615 C13.992903,6.778765 9.176193,11.814625 10.157373,10.881055 Z M15.961563,3.26601245 C15.961563,2.56110948 15.513813,1.993995 14.964543,1.993995 L2.991033,1.993995 C2.438523,1.993995 1.994013,2.56512831 1.994013,3.26601245 L1.994013,14.7219775 C1.994013,15.4268805 2.441673,15.993995 2.991033,15.993995 L14.964543,15.993995 C15.516963,15.993995 15.961563,15.4228617 15.961563,14.7219775 L15.961563,3.26601245 Z M15.961563,17.999955 L1.994013,17.999955 C0.892233,17.999955 -2.7e-05,16.9268162 -2.7e-05,15.60155 L-2.7e-05,2.39846829 C-2.7e-05,1.07320201 0.892233,-4.5e-05 1.994013,-4.5e-05 L15.961563,-4.5e-05 C17.063343,-4.5e-05 17.955513,1.07320201 17.955513,2.39846829 L17.955513,15.5976528 C17.958663,16.9230273 17.063343,17.999955 15.961563,17.999955 Z" id="Fill-1" fill="#007AFF" mask="url(#mask-2)"></path>
                    </g>
                </g>
            </g>
        </g>
    </g>
</svg>