<?xml version="1.0" encoding="UTF-8"?>
<svg width="32px" height="32px" viewBox="0 0 32 32" version="1.1" xmlns="http://www.w3.org/2000/svg" xmlns:xlink="http://www.w3.org/1999/xlink">
    <!-- Generator: Sketch 52.5 (67469) - http://www.bohemiancoding.com/sketch -->
    <title>Icon</title>
    <desc>Created with Sketch.</desc>
    <defs>
        <polygon id="path-1" points="2e-05 0 15.9995216 0 15.9995216 17.9104943 2e-05 17.9104943"></polygon>
    </defs>
    <g id="页面-1" stroke="none" stroke-width="1" fill="none" fill-rule="evenodd">
        <g id="资金管理" transform="translate(-761.000000, -275.000000)">
            <g id="质押合约地址" transform="translate(740.000000, 261.000000)">
                <g id="Icon" transform="translate(21.000000, 14.000000)">
                    <circle id="Base" fill="#FFDBDB" cx="16" cy="16" r="16"></circle>
                    <g id="编组" transform="translate(8.000000, 7.000000)">
                        <mask id="mask-2" fill="white">
                            <use xlink:href="#path-1"></use>
                        </mask>
                        <g id="Clip-2"></g>
                        <path d="M4.90192,7.83557015 L10.90376,7.83557015 C11.34552,7.83530149 11.70392,8.23604776 11.70416,8.73055522 C11.7044,9.22515224 11.3464,9.62634627 10.90464,9.62661493 L10.90376,9.62661493 L4.90288,9.62661493 C4.46112,9.62679403 4.10272,9.22613731 4.10248,8.7315403 C4.10224,8.23694328 4.46024,7.83583881 4.902,7.83557015 L4.90288,7.83557015 L4.90192,7.83557015 Z M4.90192,4.47745075 L10.90376,4.47745075 C11.34552,4.47745075 11.70368,4.87837612 11.70368,5.37297313 C11.70368,5.8674806 11.34552,6.26840597 10.90376,6.26840597 L4.90288,6.26840597 C4.46112,6.26849552 4.10296,5.86757015 4.10288,5.37297313 C4.10288,4.87846567 4.46104,4.47745075 4.9028,4.47745075 L4.90288,4.47745075 L4.90192,4.47745075 Z M15.0916,0.00557014925 C15.54192,-0.0487880597 15.94624,0.315689552 15.99488,0.819689552 C15.998,0.852286567 15.99952,0.885062687 15.99952,0.917838806 L15.99952,16.9897791 C16.0004,17.4966448 15.634,17.908406 15.18112,17.909391 C15.02072,17.9096597 14.86368,17.8573612 14.7296,17.7587642 C14.71744,17.752406 14.70544,17.7456896 14.6936,17.7386149 L7.92984,13.7245254 L1.406,17.6938388 C1.3636,17.719809 1.31904,17.7411224 1.27304,17.7576 C0.89552,18.0376299 0.38672,17.922197 0.13656,17.4996896 C0.04744,17.3491522 -3.38813179e-21,17.1725552 8e-05,16.9920179 L8e-05,0.919002985 C-3.38813179e-21,0.911122388 -3.38813179e-21,0.903331343 8e-05,0.895450746 C8e-05,0.400853731 0.35824,1.79104478e-05 0.80008,-7.1641791e-05 L15.0056,-7.1641791e-05 C15.0356,-7.1641791e-05 15.0636,0.00225671642 15.0916,0.00557014925 Z M14.35856,1.79097313 L1.64104,1.79097313 L1.64104,15.5066149 L7.5208,11.9246149 C7.70096,11.8143761 7.9116,11.7840179 8.1108,11.8395403 C8.18968,11.8567343 8.26584,11.8869134 8.3368,11.9290925 L14.35856,15.511003 L14.35856,1.79097313 Z" id="Fill-1" fill="#F56C6C" mask="url(#mask-2)"></path>
                    </g>
                </g>
            </g>
        </g>
    </g>
</svg>