<?xml version="1.0" encoding="UTF-8"?>
<svg width="32px" height="32px" viewBox="0 0 32 32" version="1.1" xmlns="http://www.w3.org/2000/svg" xmlns:xlink="http://www.w3.org/1999/xlink">
    <!-- Generator: Sketch 52.5 (67469) - http://www.bohemiancoding.com/sketch -->
    <title>质押icon</title>
    <desc>Created with Sketch.</desc>
    <g id="页面-1" stroke="none" stroke-width="1" fill="none" fill-rule="evenodd">
        <g id="资金管理" transform="translate(-231.000000, -275.000000)" fill="#F5A623">
            <g id="已质押数量" transform="translate(210.000000, 261.000000)">
                <g id="质押icon" transform="translate(21.000000, 14.000000)">
                    <circle id="Base" opacity="0.2" cx="16" cy="16" r="16"></circle>
                    <path d="M9.68965517,8.78758621 L22.1862069,8.78758621 C22.8489486,8.78758621 23.3862069,9.32484451 23.3862069,9.98758621 L23.3862069,10.5668966 C23.3862069,11.2296383 22.8489486,11.7668966 22.1862069,11.7668966 L9.68965517,11.7668966 C9.02691347,11.7668966 8.48965517,11.2296383 8.48965517,10.5668966 L8.48965517,9.98758621 C8.48965517,9.32484451 9.02691347,8.78758621 9.68965517,8.78758621 Z M9.68965517,14.4482759 L22.1862069,14.4482759 C22.8489486,14.4482759 23.3862069,14.9855342 23.3862069,15.6482759 L23.3862069,16.2275862 C23.3862069,16.8903279 22.8489486,17.4275862 22.1862069,17.4275862 L9.68965517,17.4275862 C9.02691347,17.4275862 8.48965517,16.8903279 8.48965517,16.2275862 L8.48965517,15.6482759 C8.48965517,14.9855342 9.02691347,14.4482759 9.68965517,14.4482759 Z M9.68965517,20.1089655 L22.1862069,20.1089655 C22.8489486,20.1089655 23.3862069,20.6462238 23.3862069,21.3089655 L23.3862069,21.8882759 C23.3862069,22.5510176 22.8489486,23.0882759 22.1862069,23.0882759 L9.68965517,23.0882759 C9.02691347,23.0882759 8.48965517,22.5510176 8.48965517,21.8882759 L8.48965517,21.3089655 C8.48965517,20.6462238 9.02691347,20.1089655 9.68965517,20.1089655 Z" id="Combined-Shape"></path>
                </g>
            </g>
        </g>
    </g>
</svg>