<?xml version="1.0" encoding="UTF-8"?>
<svg width="32px" height="32px" viewBox="0 0 32 32" version="1.1" xmlns="http://www.w3.org/2000/svg" xmlns:xlink="http://www.w3.org/1999/xlink">
    <!-- Generator: Sketch 52.5 (67469) - http://www.bohemiancoding.com/sketch -->
    <title>编组 3</title>
    <desc>Created with Sketch.</desc>
    <g id="页面-1" stroke="none" stroke-width="1" fill="none" fill-rule="evenodd">
        <g id="首页" transform="translate(-228.000000, -142.000000)">
            <g id="全网算力" transform="translate(207.000000, 128.000000)">
                <g id="编组-3" transform="translate(21.000000, 14.000000)">
                    <path d="M16,0 C7.16318874,0 0,7.1642567 0,16 C0,24.837368 7.16318874,32 16,32 C24.8369735,32 32,24.837368 32,16 C32,7.1642567 24.8369735,0 16,0 Z" id="路径" fill="#CCEFCC"></path>
                    <path d="M15.9857315,17.8461997 C15.858663,17.8461997 15.7336493,17.821527 15.6268,17.7778278 L7.5848274,13.7834098 C7.23592329,13.6391638 7.00003288,13.3014036 7.00003288,12.9294575 C7.00003288,12.5575888 7.23395068,12.217895 7.5848274,12.0736489 L15.6268,8.06971766 C15.8607178,7.97675047 16.1208548,7.97675047 16.3547726,8.06971766 L24.3866356,12.064213 C24.7456493,12.2083817 24.9714301,12.5461419 24.9714301,12.918088 C24.9714301,13.2900341 24.7375123,13.6296505 24.3866356,13.7738966 L16.3467178,17.7778278 C16.2378137,17.8290294 16.1127178,17.8461997 15.9857315,17.8461997 Z M16.0050245,21.5 C15.8776827,21.5 15.7604722,21.4733344 15.645321,21.4261055 L7.58605226,17.0988451 C7.22626642,16.9428641 7,16.5778218 7,16.173826 C7,15.77192 7.2344209,15.4047879 7.58605226,15.2488905 C7.83052213,15.1382159 8.11749417,15.2673642 8.22457329,15.5155461 C8.33379399,15.7636445 8.21650117,16.0446778 7.9720313,16.173826 C7.9720313,16.173826 7.9720313,16.1922997 7.98010342,16.2004916 L16.0029653,20.4990802 L24.0359584,16.1820179 C24.0359584,16.1820179 24.0359584,16.1553524 24.0278863,16.1451543 C23.7833341,16.0343961 23.6681829,15.7534464 23.775262,15.4970725 C23.8844827,15.2488905 24.1713724,15.1320302 24.4138654,15.2406986 C24.7736512,15.396596 25,15.7616383 25,16.1636279 C25,16.5656175 24.7654967,16.932666 24.4138654,17.0885634 L16.364728,21.4159074 C16.2495767,21.4712447 16.1322839,21.5 16.0050245,21.5 Z M16.0050245,24.2 C15.8776827,24.2 15.7604722,24.1734144 15.645321,24.1261789 L7.58605226,19.7982366 C7.22626642,19.6423176 7,19.2772248 7,18.8731732 C7,18.471128 7.2344209,18.1039452 7.58605226,17.9501163 C7.83052213,17.8393428 8.11749417,17.9132475 8.22457329,18.1614638 C8.33379399,18.4095965 8.21650117,18.6721924 7.9720313,18.7644061 C7.9720313,18.7644061 7.9720313,18.8383109 7.98010342,18.846504 L16.0029653,23.1744462 L24.0359584,18.8752633 C24.0359584,18.8752633 24.0359584,18.8567871 24.0278863,18.8485104 C23.7833341,18.7378205 23.6681829,18.456832 23.775262,18.2086157 C23.8844827,17.9603994 24.1713724,17.8435229 24.4138654,17.9522063 C24.7736512,18.1081253 25,18.4732181 25,18.8752633 C25,19.2772248 24.7654967,19.6444077 24.4138654,19.800243 L16.3667872,24.1179858 C16.2495767,24.1713243 16.1322839,24.2 16.0050245,24.2 Z" id="形状结合" fill="#00B000"></path>
                </g>
            </g>
        </g>
    </g>
</svg>