<?xml version="1.0" encoding="UTF-8"?>
<svg width="32px" height="32px" viewBox="0 0 32 32" version="1.1" xmlns="http://www.w3.org/2000/svg" xmlns:xlink="http://www.w3.org/1999/xlink">
    <!-- Generator: Sketch 52.5 (67469) - http://www.bohemiancoding.com/sketch -->
    <title>24小时挖矿收益icon备份</title>
    <desc>Created with Sketch.</desc>
    <defs>
        <polygon id="path-1" points="0 0 14 0 14 16 0 16"></polygon>
    </defs>
    <g id="页面-1" stroke="none" stroke-width="1" fill="none" fill-rule="evenodd">
        <g id="资金管理" transform="translate(-762.000000, -134.000000)">
            <g id="其他收益" transform="translate(740.000000, 120.000000)">
                <g id="24小时挖矿收益icon备份" transform="translate(22.000000, 14.000000)">
                    <path d="M16,0 C7.16256,0 0,7.1624 0,16 C0,24.83744 7.16256,32 16,32 C24.83744,32 32,24.83744 32,16 C32,7.16256 24.83744,0 16,0 Z" id="路径" fill="#CCE4FF"></path>
                    <g id="编组" transform="translate(9.000000, 8.000000)">
                        <mask id="mask-2" fill="white">
                            <use xlink:href="#path-1"></use>
                        </mask>
                        <g id="Clip-2"></g>
                        <path d="M7,5.22586979 C2.40333333,5.22586979 0,8.41196246 0,11.5518799 C0,13.4603609 0.723333333,16 7,16 C13.2766667,16 14,13.4603609 14,11.5518799 C14,8.41196246 11.5966667,5.22586979 7,5.22586979 Z M9.14666667,3.91766707 C9.43804167,3.98029226 9.7405,3.87264619 9.92425,3.64061553 C10.2194167,3.27467663 10.4924167,2.8917106 10.7412083,2.49373761 C11.1547917,1.78292726 10.9080417,0.875006291 10.1896667,0.465489489 C10.164,0.450771127 10.13775,0.43691855 10.1112083,0.423643164 C9.52116667,0.0706910503 8.82554167,-0.0678347177 8.14333333,0.0311534874 C7.44333333,0.138799553 6.867875,0.946866534 6.07454167,1.03171357 C5.28091667,1.116272 4.51879167,0.485113973 3.997875,0.523497155 C3.16575,0.577464485 2.76120833,1.65507952 3.22,2.49373761 C3.47404167,2.89228779 3.75170833,3.27525382 4.05241667,3.64061553 C4.23616667,3.87264619 4.538625,3.98029226 4.83,3.91766707 C6.24429167,3.60973583 7.70933333,3.60973583 9.12333333,3.91766707 L9.14666667,3.91766707 Z" id="Fill-1" fill="#007AFF" mask="url(#mask-2)"></path>
                    </g>
                </g>
            </g>
        </g>
    </g>
</svg>