<?xml version="1.0" encoding="UTF-8"?>
<svg width="32px" height="32px" viewBox="0 0 32 32" version="1.1" xmlns="http://www.w3.org/2000/svg" xmlns:xlink="http://www.w3.org/1999/xlink">
    <!-- Generator: Sketch 52.5 (67469) - http://www.bohemiancoding.com/sketch -->
    <title>24小时挖矿收益icon</title>
    <desc>Created with Sketch.</desc>
    <g id="页面-1" stroke="none" stroke-width="1" fill="none" fill-rule="evenodd">
        <g id="资金管理" transform="translate(-231.000000, -134.000000)" fill="#00B000">
            <g id="总收益" transform="translate(210.000000, 120.000000)">
                <g id="24小时挖矿收益icon" transform="translate(21.000000, 14.000000)">
                    <g>
                        <path d="M16,0 C7.16256,0 0,7.1624 0,16 C0,24.83744 7.16256,32 16,32 C24.83744,32 32,24.83744 32,16 C32,7.16256 24.83744,0 16,0 Z" id="路径" opacity="0.2"></path>
                        <path d="M16,15.1 C12.09056,15.1 8.92496,13.38432 8.92496,11.27184 C8.92496,9.15936 12.09056,7.44064 16,7.44064 C19.90944,7.44064 23.07504,9.15616 23.07504,11.2688 C23.07504,13.38128 19.90944,15.1 16,15.1 Z M14.1885135,10.0949534 C13.9028378,10.1526561 13.7827027,10.4260344 13.9633784,10.625629 L14.6085135,11.3398182 L14.4666216,12.3368452 C14.4529054,12.4163047 14.4661486,12.498602 14.5044595,12.5700209 C14.5990541,12.7445479 14.8170946,12.8093452 14.9916216,12.7152236 L15.9952703,12.3027912 L16.6858108,12.586575 C17.155,12.7757642 17.5504054,12.4919804 17.4832432,12.0190074 L17.3886486,11.3398182 L18.0347297,10.625629 C18.2144595,10.4260344 18.0924324,10.1526561 17.8086486,10.0949534 L16.8191892,9.8981966 L16.297973,9.15562903 C16.2738514,9.121102 16.2435811,9.09083173 16.2090541,9.06671011 C16.0439865,8.95035876 15.8155405,8.99008849 15.6991892,9.15562903 L15.177973,9.8981966 L14.1885135,10.0949534 Z M23.07504,16 C23.07504,18.11552 19.90624,19.828 16,19.828 C12.09056,19.828 8.92496,18.11248 8.92496,16 L8.92496,13.87808 C10.35632,15.328 12.95632,16.28112 16,16.28112 C19.04368,16.28112 21.64368,15.328 23.07504,13.87808 L23.07504,16 Z M23.07504,20.7312 C23.07504,22.84672 19.90624,24.55936 16,24.55936 C12.09056,24.55936 8.92496,22.84368 8.92496,20.7312 L8.92496,18.60928 C10.35632,20.05936 12.95936,21.01248 16,21.01248 C19.04368,21.01248 21.64368,20.05936 23.07504,18.60928 L23.07504,20.7312 Z" id="Fill-1"></path>
                    </g>
                </g>
            </g>
        </g>
    </g>
</svg>