<?xml version="1.0" encoding="UTF-8"?>
<svg width="17px" height="16px" viewBox="0 0 17 16" version="1.1" xmlns="http://www.w3.org/2000/svg" xmlns:xlink="http://www.w3.org/1999/xlink">
    <!-- Generator: Sketch 52.5 (67469) - http://www.bohemiancoding.com/sketch -->
    <title>路径</title>
    <desc>Created with Sketch.</desc>
    <g id="页面-1" stroke="none" stroke-width="1" fill="none" fill-rule="evenodd">
        <g id="首页" transform="translate(-976.000000, -24.000000)" fill="#344563">
            <g id="顶部NAV" transform="translate(180.000000, 0.000000)">
                <path d="M809,31 C809,30.3333333 809,29.6666667 809,29 C809,28 809.890516,28.8901621 810,29 C812,31 813,32 813,32 L810,35 C809.780934,35.1099367 809,36 809,35 L809,33 L803,33 C802.343098,33 802,32.659126 802,32 C802,31.340874 802.343098,31 803,31 L809,31 Z M806,36.7274021 C806,36.0729611 806.282846,35.6366671 806.939232,35.6366671 C807.595519,35.6366671 808.033142,36.0729611 808.033142,36.7274021 L808.033142,37.8183335 C808.033142,39.0182403 807.048613,40 805.845321,40 L798.187848,40 C796.984556,40 796.000027,39.0182403 796.000027,37.8183335 L796.000027,26.1817646 C796.000027,24.9817597 796.984556,24 798.187848,24 L805.845321,24 C807.048613,24 808.033142,24.9817597 808.033142,26.1817646 L808.033142,27.2725979 C808.033142,27.9270389 807.595519,28.3634311 806.939232,28.3634311 C806.282846,28.3634311 806,27.654441 806,27 L806,25.9091668 L798,26 L798,38 L806,38 L806,36.7274021 Z" id="Fill-1"></path>
            </g>
        </g>
    </g>
</svg>