<?xml version="1.0" encoding="UTF-8"?>
<svg width="22px" height="22px" viewBox="0 0 22 22" version="1.1" xmlns="http://www.w3.org/2000/svg" xmlns:xlink="http://www.w3.org/1999/xlink">
    <!-- Generator: Sketch 52.5 (67469) - http://www.bohemiancoding.com/sketch -->
    <title>编组</title>
    <desc>Created with Sketch.</desc>
    <g id="页面-1" stroke="none" stroke-width="1" fill="none" fill-rule="evenodd">
        <g id="首页-全网出块监控" transform="translate(-954.000000, -145.000000)" fill="#00B000">
            <g id="编组" transform="translate(954.000000, 145.000000)">
                <path d="M10.9963701,0 C4.92228015,0.00099016337 -0.00098985072,4.92672288 1.49280072e-07,11.0018152 C0.00099014928,17.0769076 4.92591015,22.00099 11.0000001,21.9999999 C17.0735401,21.9990097 21.9965901,17.0741571 21.9963701,10.9996149 C21.9887801,4.92705293 17.0679301,0.00649107098 10.9963701,0" id="Fill-1" fill-opacity="0.3"></path>
                <path d="M5.5,12.5397981 C5.5,12.1278132 5.84781564,11.7940225 6.27685355,11.7940225 C6.61176579,11.7955709 6.90704618,12.0052684 7.00658666,12.3122939 L7.01730109,12.3082017 C7.8196158,14.4822652 10.3059389,15.6203389 12.5707152,14.8501207 C14.8353764,14.079792 16.0207607,11.6930447 15.2183308,9.51898123 C14.6026544,7.85069137 12.9585084,6.73606493 11.1149357,6.73728152 C10.6040995,6.73960412 10.0977564,6.8289689 9.6195243,7.00128364 L10.1671122,8.00962352 C10.2338181,8.07841669 10.2709154,8.16888746 10.2708002,8.26289743 C10.2539797,8.46418937 10.0853138,8.62301092 9.87528804,8.63517691 L9.85028771,8.63517691 L5.96855456,8.47524936 C5.75415081,8.46618017 5.58778917,8.29209582 5.59712109,8.08626929 C5.60011653,8.02090471 5.62085413,7.95753093 5.65749055,7.90234155 L7.74277147,4.75577256 C7.85821078,4.58202002 8.09853653,4.53114404 8.27941449,4.6419652 C8.3366733,4.67713599 8.3833329,4.72602117 8.41478493,4.78375435 L8.89370829,5.66523607 C11.9140246,4.48579805 15.3586552,5.880353 16.5871276,8.77984167 C17.8157152,11.6795515 16.3631615,14.9861587 13.34273,16.1655967 C12.6352322,16.4418754 11.8786554,16.5836646 11.1149357,16.5833328 C8.64220728,16.5792406 6.43353764,15.0981964 5.57880288,12.8708237 L5.58721313,12.8675057 C5.53179765,12.7664174 5.50207376,12.654269 5.5,12.5401299" id="Fill-3"></path>
            </g>
        </g>
    </g>
</svg>