<?xml version="1.0" encoding="UTF-8"?>
<svg width="32px" height="32px" viewBox="0 0 32 32" version="1.1" xmlns="http://www.w3.org/2000/svg" xmlns:xlink="http://www.w3.org/1999/xlink">
    <!-- Generator: Sketch 52.5 (67469) - http://www.bohemiancoding.com/sketch -->
    <title>Icon</title>
    <desc>Created with Sketch.</desc>
    <g id="页面-1" stroke="none" stroke-width="1" fill="none" fill-rule="evenodd">
        <g id="首页" transform="translate(-498.000000, -142.000000)">
            <g id="每TB日平均奖励" transform="translate(477.000000, 128.000000)">
                <g id="编组-6">
                    <g id="Icon" transform="translate(21.000000, 14.000000)">
                        <circle id="Base" fill="#CCE4FF" cx="16" cy="16" r="16"></circle>
                        <g transform="translate(8.000000, 8.000000)" fill="#007AFF" id="Shape">
                            <path d="M7.22857143,8.29261084 L8.64729064,8.29261084 C9.23494338,8.29261084 9.71133005,8.76899751 9.71133005,9.35665025 L9.71133005,14.3221675 C9.71133005,14.9098202 9.23494338,15.3862069 8.64729064,15.3862069 L7.22857143,15.3862069 C6.64091869,15.3862069 6.16453202,14.9098202 6.16453202,14.3221675 L6.16453202,9.35665025 C6.16453202,8.76899751 6.64091869,8.29261084 7.22857143,8.29261084 Z M1.55369458,10.4206897 L2.97241379,10.4206897 C3.56006653,10.4206897 4.0364532,10.8970763 4.0364532,11.4847291 L4.0364532,14.3221675 C4.0364532,14.9098202 3.56006653,15.3862069 2.97241379,15.3862069 L1.55369458,15.3862069 C0.966041843,15.3862069 0.489655172,14.9098202 0.489655172,14.3221675 L0.489655172,11.4847291 C0.489655172,10.8970763 0.966041843,10.4206897 1.55369458,10.4206897 Z M1.90837438,7.58325123 C1.1248374,7.58325123 0.489655172,6.948069 0.489655172,6.16453202 C0.489655172,5.38099503 1.1248374,4.74581281 1.90837438,4.74581281 C2.69191137,4.74581281 3.3270936,5.38099503 3.3270936,6.16453202 C3.3270936,6.948069 2.69191137,7.58325123 1.90837438,7.58325123 Z M7.58325123,5.45517241 C6.79971425,5.45517241 6.16453202,4.81999019 6.16453202,4.0364532 C6.16453202,3.25291622 6.79971425,2.61773399 7.58325123,2.61773399 C8.36678822,2.61773399 9.00197044,3.25291622 9.00197044,4.0364532 C9.00197044,4.81999019 8.36678822,5.45517241 7.58325123,5.45517241 Z M13.2581281,3.3270936 C12.4745911,3.3270936 11.8394089,2.69191137 11.8394089,1.90837438 C11.8394089,1.1248374 12.4745911,0.489655172 13.2581281,0.489655172 C14.0416651,0.489655172 14.6768473,1.1248374 14.6768473,1.90837438 C14.6768473,2.69191137 14.0416651,3.3270936 13.2581281,3.3270936 Z M12.9034483,6.16453202 L14.3221675,6.16453202 C14.9098202,6.16453202 15.3862069,6.64091869 15.3862069,7.22857143 L15.3862069,14.2928345 C15.3862069,14.8804873 14.9098202,15.3568739 14.3221675,15.3568739 L12.9034483,15.3568739 C12.3157955,15.3568739 11.8394089,14.8804873 11.8394089,14.2928345 L11.8394089,7.22857143 C11.8394089,6.64091869 12.3157955,6.16453202 12.9034483,6.16453202 Z M5.45650807,4.11256309 C5.4696298,4.48584752 5.57889215,4.83467348 5.76029263,5.13503846 L4.00423115,5.79356152 C3.94033122,5.4300636 3.78417616,5.09834853 3.56080237,4.82345272 L5.45650807,4.11256309 Z M11.1313849,1.98448427 C11.1445066,2.3577687 11.253769,2.70659466 11.4351695,3.00695965 L9.679108,3.6654827 C9.61520807,3.30198478 9.459053,2.97026971 9.23567922,2.6953739 L11.1313849,1.98448427 Z"></path>
                        </g>
                    </g>
                </g>
            </g>
        </g>
    </g>
</svg>