<?xml version="1.0" encoding="UTF-8"?>
<svg width="32px" height="32px" viewBox="0 0 32 32" version="1.1" xmlns="http://www.w3.org/2000/svg" xmlns:xlink="http://www.w3.org/1999/xlink">
    <!-- Generator: Sketch 52.5 (67469) - http://www.bohemiancoding.com/sketch -->
    <title>全网已挖出奖励icon</title>
    <desc>Created with Sketch.</desc>
    <g id="页面-1" stroke="none" stroke-width="1" fill="none" fill-rule="evenodd">
        <g id="首页" transform="translate(-768.000000, -142.000000)">
            <g id="全网已挖出奖励" transform="translate(747.000000, 128.000000)">
                <g id="全网已挖出奖励icon" transform="translate(21.000000, 14.000000)">
                    <path d="M16,0 C7.16318874,0 0,7.1642567 0,16 C0,24.837368 7.16318874,32 16,32 C24.8369735,32 32,24.837368 32,16 C32,7.1642567 24.8369735,0 16,0 Z" id="路径" fill="#FDEDD3"></path>
                    <path d="M20.5035984,13.5915948 C21.8230917,12.7007855 23.6150888,13.0481723 24.5061865,14.3676656 C25.3969958,15.6874473 25.049609,17.4791561 23.7298274,18.3702537 C22.7640632,19.0223608 21.5002094,19.0287031 20.5278146,18.3863978 L18.3979442,20.5165565 C19.2703031,21.8484463 18.8975469,23.6352542 17.5656572,24.5073248 C16.2334792,25.3796838 14.4466713,25.0072159 13.5743124,23.6750379 C12.9438269,22.7121566 12.9464215,21.4661766 13.5812313,20.5058899 L11.4686581,18.3933167 C10.1387864,19.2688468 8.35111364,18.9007033 7.47558353,17.5711199 C6.59976513,16.2412482 6.96790868,14.4535754 8.29778039,13.577757 C9.26094999,12.9435238 10.5098128,12.9443887 11.4721176,13.5800633 L13.5754655,11.4755622 C12.6958994,10.1482851 13.059142,8.35945918 14.3864191,7.47989304 C15.713408,6.60061519 17.5025222,6.96356955 18.3820883,8.29084667 C19.0206458,9.25488114 19.0215107,10.5072034 18.3841063,11.4721028 L20.5024452,13.5915948 L20.5035984,13.5915948 Z M19.6963925,14.4149448 L17.5688284,12.2885339 C16.6056588,12.9239202 15.3570842,12.9247851 14.3930498,12.2908402 L12.2885487,14.3953413 C12.9256648,15.3613937 12.9245116,16.6145809 12.2850892,17.5791919 L14.3965092,19.6906119 C15.3645797,19.0517661 16.620938,19.054649 17.5861257,19.6975308 L19.7125366,17.5711199 C19.0814746,16.6154458 19.0751322,15.3769613 19.6963925,14.4149448 Z" id="Fill-1" fill="#F5A623"></path>
                </g>
            </g>
        </g>
    </g>
</svg>